<?xml version="1.0" standalone="no"?>
<!DOCTYPE svg PUBLIC "-//W3C//DTD SVG 20010904//EN"
 "http://www.w3.org/TR/2001/REC-SVG-20010904/DTD/svg10.dtd">
<svg version="1.0" xmlns="http://www.w3.org/2000/svg"
 width="138.000000pt" height="104.000000pt" viewBox="0 0 138.000000 104.000000"
 preserveAspectRatio="xMidYMid meet">

<g transform="translate(0.000000,104.000000) scale(0.100000,-0.100000)"
fill="#c9d1d9" stroke="none">
<path d="M375 1025 c-143 -20 -166 -29 -222 -88 -102 -107 -141 -197 -150
-337 -6 -106 10 -216 48 -315 29 -77 122 -173 202 -208 130 -58 285 -83 462
-74 157 8 249 29 365 85 74 35 109 59 160 111 37 36 76 87 89 113 52 110 67
375 26 478 -26 66 -72 130 -124 173 -50 41 -79 51 -186 67 -97 14 -560 11
-670 -5z m615 -5 c178 -18 185 -27 55 -60 -70 -18 -109 -21 -305 -21 -123 1
-247 3 -275 7 -91 10 -207 37 -193 45 12 6 134 24 228 33 83 7 403 5 490 -4z
m273 -109 c78 -86 113 -203 103 -344 -13 -169 -34 -238 -98 -319 -25 -32 -36
-38 -83 -43 -31 -4 -58 -12 -61 -17 -4 -5 -10 -5 -18 1 -15 13 -93 17 -128 7
-42 -12 -34 8 10 23 87 32 106 73 57 125 -40 43 -80 32 -166 -50 -62 -60 -62
-60 -74 8 -5 34 -4 37 25 43 17 4 43 17 59 31 24 20 33 22 62 14 19 -6 56 -10
84 -10 27 -1 61 -7 75 -15 35 -20 61 -19 32 1 -13 9 -56 20 -95 25 -108 13
-120 17 -112 37 4 9 10 28 13 41 l5 24 121 -6 c67 -4 138 -9 159 -13 21 -4 37
-3 37 3 0 9 -191 33 -267 33 -34 0 -42 4 -47 22 -3 13 -2 26 2 30 4 4 44 14
87 22 70 13 180 39 225 54 10 3 11 6 3 9 -6 2 -47 -5 -90 -16 -79 -21 -235
-53 -239 -48 -1 1 -16 31 -34 67 l-33 65 18 68 c10 37 15 70 13 73 -6 6 -114
-75 -147 -110 -21 -22 -33 -26 -81 -26 -55 0 -56 1 -115 60 -33 33 -65 60 -72
60 -10 0 -13 -21 -13 -78 0 -71 -3 -81 -25 -102 -13 -12 -30 -38 -36 -57 l-11
-35 -102 7 c-55 3 -114 2 -131 -3 -23 -7 0 -10 93 -14 68 -4 125 -8 127 -10 1
-1 5 -13 9 -24 6 -21 2 -23 -81 -34 -48 -7 -104 -16 -123 -21 -36 -9 10 -7
156 8 l60 5 16 -41 16 -41 -44 0 c-25 0 -55 -5 -67 -12 -12 -6 -53 -15 -92
-18 l-70 -6 54 -5 c35 -2 68 1 90 10 51 21 130 19 169 -4 35 -21 37 -30 21
-104 l-10 -49 -29 16 c-24 14 -33 15 -49 5 -14 -9 -29 -9 -53 -3 -22 7 -44 6
-66 -1 -19 -6 -60 -11 -93 -12 -36 0 -63 -5 -70 -14 -16 -18 -26 -9 -55 49
-52 103 -76 245 -64 373 12 122 46 195 138 295 l57 62 81 -21 c117 -30 301
-44 513 -39 174 4 192 7 276 35 88 29 91 29 116 12 14 -10 42 -36 62 -58z
m-721 -174 c4 -18 1 -26 -6 -24 -6 2 -19 0 -28 -5 -16 -8 -18 -3 -18 52 l0 62
24 -29 c12 -15 25 -41 28 -56z m281 28 c-41 -40 -52 -69 -27 -70 62 -3 82 -17
107 -68 24 -50 24 -52 6 -61 -28 -13 -23 -27 6 -20 22 5 25 3 25 -20 0 -16 -6
-26 -15 -26 -8 0 -15 -4 -15 -10 0 -5 7 -7 15 -4 18 7 18 6 4 -35 -10 -27 -16
-31 -47 -31 -35 -1 -36 -1 -14 -13 26 -15 21 -23 -27 -43 -48 -20 -298 -19
-325 1 -15 11 -16 15 -5 16 8 1 3 4 -11 8 -15 4 -34 23 -48 48 l-23 42 38 -4
38 -5 -40 14 c-31 10 -41 18 -43 38 -2 20 3 27 30 35 32 11 33 11 6 12 -16 1
-28 6 -28 12 0 38 74 119 108 119 23 0 24 3 19 37 l-6 36 35 -34 c32 -31 40
-34 94 -33 56 1 61 3 116 52 71 64 87 68 27 7z m53 3 c-3 -13 -6 -34 -6 -47 0
-21 -3 -23 -32 -17 -17 3 -34 8 -37 11 -6 7 60 75 72 75 5 0 7 -10 3 -22z
m150 -426 c6 -4 17 -18 24 -31 11 -22 10 -27 -13 -47 -14 -12 -66 -35 -116
-52 -78 -26 -90 -28 -96 -14 -11 29 126 152 169 152 12 0 26 -4 32 -8z m-308
-11 c66 -1 72 -3 72 -21 0 -39 33 -155 47 -163 17 -10 17 -37 0 -37 -7 0 -19
6 -25 12 -10 10 -15 10 -23 -2 -8 -13 -11 -13 -23 3 -16 21 -26 22 -26 2 0 -8
-7 -15 -15 -15 -11 0 -14 7 -9 25 3 14 3 42 -1 63 -7 34 -8 35 -14 12 -6 -21
-13 -25 -41 -25 -30 0 -35 3 -34 23 1 38 -13 24 -20 -19 -4 -24 -2 -46 4 -54
5 -6 7 -14 4 -18 -10 -9 -34 4 -34 19 0 8 -4 14 -10 14 -5 0 -10 -9 -10 -20 0
-11 -7 -20 -15 -20 -8 0 -15 8 -15 17 0 13 -3 14 -12 5 -14 -14 -48 -16 -48
-2 0 5 6 13 14 17 15 8 46 113 46 155 0 14 2 27 4 29 3 2 28 3 58 2 29 0 86
-2 126 -2z m-250 -117 c28 -19 28 -32 1 -61 -18 -19 -20 -25 -9 -38 7 -8 24
-15 39 -15 14 0 34 0 44 0 9 0 32 1 50 2 29 3 32 6 30 34 -2 29 -1 30 37 29
46 -1 57 -9 41 -29 -7 -8 -10 -19 -7 -24 8 -13 79 -21 127 -15 46 7 59 25 35
52 -16 18 -15 19 24 35 36 14 44 15 62 2 15 -11 26 -12 39 -5 19 10 90 6 122
-6 9 -4 23 -3 30 3 6 5 30 12 51 14 l39 4 -33 -28 c-61 -51 -192 -108 -297
-130 -129 -26 -407 -22 -518 9 -128 35 -255 117 -227 145 10 10 17 10 32 0 10
-6 21 -8 24 -3 9 14 54 19 66 7 8 -8 14 -6 21 7 11 19 59 23 91 6 16 -9 24 -7
36 5 20 20 22 20 50 0z"/>
<path d="M182 837 c-39 -41 -72 -106 -79 -155 -5 -38 -4 -39 36 -55 74 -30 76
-28 73 65 -2 46 1 102 6 126 6 23 7 44 3 47 -5 2 -22 -10 -39 -28z m16 -64
c-4 -32 -5 -79 -2 -105 l6 -47 -29 8 c-44 14 -63 23 -63 30 0 42 67 171 89
171 4 0 4 -26 -1 -57z"/>
<path d="M743 660 c-51 -21 -58 -96 -14 -141 35 -35 40 -35 75 -8 21 17 26 29
26 68 0 69 -35 102 -87 81z m61 -32 c30 -43 9 -118 -33 -118 -45 0 -73 86 -42
124 19 23 57 20 75 -6z"/>
<path d="M747 593 c-11 -10 -8 -41 4 -49 16 -9 43 21 36 40 -7 16 -28 21 -40
9z"/>
<path d="M534 625 c-18 -43 -18 -59 1 -95 47 -90 143 -11 114 93 -10 36 -12
37 -55 37 -42 0 -46 -2 -60 -35z m94 13 c18 -18 15 -88 -5 -110 -21 -24 -60
-23 -73 1 -15 29 -12 87 6 105 18 19 55 21 72 4z"/>
<path d="M574 585 c-4 -9 -2 -21 4 -27 15 -15 44 -1 40 19 -4 23 -36 29 -44 8z"/>
<path d="M655 510 c-9 -15 14 -40 31 -33 22 8 18 43 -5 43 -11 0 -23 -5 -26
-10z"/>
<path d="M540 452 c0 -17 86 -37 150 -36 38 1 80 8 100 17 34 17 34 17 5 11
-81 -16 -172 -16 -209 0 -44 19 -46 19 -46 8z"/>
</g>
</svg>
